<svg width="79" height="77" viewBox="0 0 79 77" fill="none" xmlns="http://www.w3.org/2000/svg">
<path d="M35.2679 60.1562H26.8036C26.4294 60.1562 26.0706 60.283 25.806 60.5086C25.5415 60.7343 25.3929 61.0403 25.3929 61.3594V68.5781C25.3929 68.8972 25.5415 69.2032 25.806 69.4289C26.0706 69.6545 26.4294 69.7812 26.8036 69.7812H35.2679C35.642 69.7812 36.0008 69.6545 36.2654 69.4289C36.5299 69.2032 36.6786 68.8972 36.6786 68.5781V61.3594C36.6786 61.0403 36.5299 60.7343 36.2654 60.5086C36.0008 60.283 35.642 60.1562 35.2679 60.1562ZM33.8571 67.375H28.2143V62.5625H33.8571V67.375ZM62.0714 68.9463C62.1821 69.1345 62.3487 69.2947 62.5546 69.4108C62.7606 69.527 62.9987 69.5949 63.2451 69.608H63.3326C63.5649 69.6079 63.7936 69.5589 63.9984 69.4653C64.2031 69.3716 64.3776 69.2364 64.5063 69.0714L70.1492 61.8527C70.252 61.7212 70.3234 61.5738 70.3595 61.4188C70.3955 61.2638 70.3953 61.1042 70.359 60.9493C70.3227 60.7943 70.251 60.647 70.148 60.5157C70.0449 60.3843 69.9126 60.2716 69.7584 60.1839C69.6043 60.0962 69.4314 60.0353 69.2496 60.0046C69.0679 59.9739 68.8808 59.974 68.6992 60.0049C68.5175 60.0359 68.3447 60.0971 68.1907 60.1849C68.0367 60.2728 67.9046 60.3857 67.8018 60.5172L63.5075 66.0107L61.7893 63.0582C61.622 62.7726 61.3286 62.5554 60.9736 62.4543C60.6185 62.3532 60.231 62.3766 59.8961 62.5192C59.5612 62.6618 59.3065 62.9121 59.188 63.2149C59.0695 63.5177 59.0969 63.8482 59.2641 64.1338L62.0714 68.9463ZM60.6607 55.3438H69.125C69.4991 55.3438 69.858 55.217 70.1225 54.9914C70.3871 54.7657 70.5357 54.4597 70.5357 54.1406V46.9219C70.5357 46.6028 70.3871 46.2968 70.1225 46.0711C69.858 45.8455 69.4991 45.7188 69.125 45.7188H60.6607C60.2866 45.7188 59.9277 45.8455 59.6632 46.0711C59.3986 46.2968 59.25 46.6028 59.25 46.9219V54.1406C59.25 54.4597 59.3986 54.7657 59.6632 54.9914C59.9277 55.217 60.2866 55.3438 60.6607 55.3438ZM62.0714 48.125H67.7143V52.9375H62.0714V48.125ZM60.6607 40.9062H69.125C69.4991 40.9062 69.858 40.7795 70.1225 40.5539C70.3871 40.3282 70.5357 40.0222 70.5357 39.7031V32.4844C70.5357 32.1653 70.3871 31.8593 70.1225 31.6336C69.858 31.408 69.4991 31.2812 69.125 31.2812H60.6607C60.2866 31.2812 59.9277 31.408 59.6632 31.6336C59.3986 31.8593 59.25 32.1653 59.25 32.4844V39.7031C59.25 40.0222 59.3986 40.3282 59.6632 40.5539C59.9277 40.7795 60.2866 40.9062 60.6607 40.9062ZM62.0714 33.6875H67.7143V38.5H62.0714V33.6875ZM9.875 55.3438H18.3393C18.7134 55.3438 19.0723 55.217 19.3368 54.9914C19.6014 54.7657 19.75 54.4597 19.75 54.1406V46.9219C19.75 46.6028 19.6014 46.2968 19.3368 46.0711C19.0723 45.8455 18.7134 45.7188 18.3393 45.7188H9.875C9.50086 45.7188 9.14204 45.8455 8.87747 46.0711C8.61291 46.2968 8.46429 46.6028 8.46429 46.9219V54.1406C8.46429 54.4597 8.61291 54.7657 8.87747 54.9914C9.14204 55.217 9.50086 55.3438 9.875 55.3438ZM11.2857 48.125H16.9286V52.9375H11.2857V48.125ZM9.875 69.7812H18.3393C18.7134 69.7812 19.0723 69.6545 19.3368 69.4289C19.6014 69.2032 19.75 68.8972 19.75 68.5781V61.3594C19.75 61.0403 19.6014 60.7343 19.3368 60.5086C19.0723 60.283 18.7134 60.1562 18.3393 60.1562H9.875C9.50086 60.1562 9.14204 60.283 8.87747 60.5086C8.61291 60.7343 8.46429 61.0403 8.46429 61.3594V68.5781C8.46429 68.8972 8.61291 69.2032 8.87747 69.4289C9.14204 69.6545 9.50086 69.7812 9.875 69.7812ZM11.2857 62.5625H16.9286V67.375H11.2857V62.5625ZM9.875 40.9062H18.3393C18.7134 40.9062 19.0723 40.7795 19.3368 40.5539C19.6014 40.3282 19.75 40.0222 19.75 39.7031V32.4844C19.75 32.1653 19.6014 31.8593 19.3368 31.6336C19.0723 31.408 18.7134 31.2812 18.3393 31.2812H9.875C9.50086 31.2812 9.14204 31.408 8.87747 31.6336C8.61291 31.8593 8.46429 32.1653 8.46429 32.4844V39.7031C8.46429 40.0222 8.61291 40.3282 8.87747 40.5539C9.14204 40.7795 9.50086 40.9062 9.875 40.9062ZM11.2857 33.6875H16.9286V38.5H11.2857V33.6875ZM71.9464 9.625H70.5357V4.8125C70.5357 3.53615 69.9412 2.31207 68.883 1.40955C67.8247 0.50703 66.3894 0 64.8929 0C63.3963 0 61.961 0.50703 60.9028 1.40955C59.8445 2.31207 59.25 3.53615 59.25 4.8125V9.625H19.75V4.8125C19.75 3.53615 19.1555 2.31207 18.0972 1.40955C17.039 0.50703 15.6037 0 14.1071 0C12.6106 0 11.1753 0.50703 10.117 1.40955C9.0588 2.31207 8.46429 3.53615 8.46429 4.8125V9.625H7.05357C5.18285 9.625 3.38874 10.2588 2.06594 11.3869C0.743142 12.5151 0 14.0452 0 15.6406V70.9844C0 72.5798 0.743142 74.1099 2.06594 75.2381C3.38874 76.3662 5.18285 77 7.05357 77H71.9464C73.8171 77 75.6113 76.3662 76.9341 75.2381C78.2569 74.1099 79 72.5798 79 70.9844V15.6406C79 14.0452 78.2569 12.5151 76.9341 11.3869C75.6113 10.2588 73.8171 9.625 71.9464 9.625ZM62.0714 4.8125C62.0714 4.17432 62.3687 3.56228 62.8978 3.11102C63.4269 2.65976 64.1446 2.40625 64.8929 2.40625C65.6411 2.40625 66.3588 2.65976 66.8879 3.11102C67.417 3.56228 67.7143 4.17432 67.7143 4.8125V14.4375C67.7143 15.0757 67.417 15.6877 66.8879 16.139C66.3588 16.5902 65.6411 16.8438 64.8929 16.8438C64.1446 16.8438 63.4269 16.5902 62.8978 16.139C62.3687 15.6877 62.0714 15.0757 62.0714 14.4375V4.8125ZM11.2857 4.8125C11.2857 4.17432 11.583 3.56228 12.1121 3.11102C12.6412 2.65976 13.3589 2.40625 14.1071 2.40625C14.8554 2.40625 15.5731 2.65976 16.1022 3.11102C16.6313 3.56228 16.9286 4.17432 16.9286 4.8125V14.4375C16.9286 15.0757 16.6313 15.6877 16.1022 16.139C15.5731 16.5902 14.8554 16.8438 14.1071 16.8438C13.3589 16.8438 12.6412 16.5902 12.1121 16.139C11.583 15.6877 11.2857 15.0757 11.2857 14.4375V4.8125ZM76.1786 70.9844C76.1786 71.9416 75.7327 72.8597 74.939 73.5366C74.1453 74.2135 73.0689 74.5938 71.9464 74.5938H7.05357C5.93114 74.5938 4.85468 74.2135 4.06099 73.5366C3.26731 72.8597 2.82143 71.9416 2.82143 70.9844V26.4688H76.1786V70.9844ZM76.1786 24.0625H2.82143V15.6406C2.82143 14.6834 3.26731 13.7653 4.06099 13.0884C4.85468 12.4115 5.93114 12.0312 7.05357 12.0312H8.46429V14.4375C8.46429 15.7139 9.0588 16.9379 10.117 17.8405C11.1753 18.743 12.6106 19.25 14.1071 19.25C15.6037 19.25 17.039 18.743 18.0972 17.8405C19.1555 16.9379 19.75 15.7139 19.75 14.4375V12.0312H59.25V14.4375C59.25 15.7139 59.8445 16.9379 60.9028 17.8405C61.961 18.743 63.3963 19.25 64.8929 19.25C66.3894 19.25 67.8247 18.743 68.883 17.8405C69.9412 16.9379 70.5357 15.7139 70.5357 14.4375V12.0312H71.9464C73.0689 12.0312 74.1453 12.4115 74.939 13.0884C75.7327 13.7653 76.1786 14.6834 76.1786 15.6406V24.0625ZM28.2143 40.0713C28.3249 40.2595 28.4915 40.4197 28.6975 40.5358C28.9035 40.652 29.1416 40.7199 29.388 40.733H29.4755C29.7078 40.7329 29.9365 40.6839 30.1412 40.5903C30.346 40.4966 30.5205 40.3614 30.6492 40.1964L36.292 32.9777C36.3949 32.8462 36.4663 32.6988 36.5023 32.5438C36.5383 32.3888 36.5382 32.2292 36.5019 32.0743C36.4656 31.9193 36.3939 31.772 36.2908 31.6406C36.1878 31.5093 36.0554 31.3966 35.9013 31.3089C35.7471 31.2212 35.5743 31.1603 35.3925 31.1296C35.2108 31.0989 35.0237 31.099 34.842 31.1299C34.6603 31.1609 34.4875 31.2221 34.3336 31.3099C34.1796 31.3978 34.0474 31.5107 33.9446 31.6422L29.6504 37.1357L27.9321 34.1832C27.8493 34.0418 27.7347 33.9157 27.5947 33.8121C27.4548 33.7084 27.2922 33.6293 27.1164 33.5793C26.9406 33.5292 26.755 33.5092 26.5701 33.5203C26.3853 33.5315 26.2048 33.5736 26.039 33.6442C25.8732 33.7148 25.7253 33.8126 25.6038 33.932C25.4823 34.0513 25.3896 34.1899 25.3309 34.3399C25.2722 34.4898 25.2487 34.6481 25.2618 34.8058C25.2748 34.9634 25.3242 35.1174 25.407 35.2588L28.2143 40.0713ZM43.7321 40.9062H52.1964C52.5706 40.9062 52.9294 40.7795 53.194 40.5539C53.4585 40.3282 53.6071 40.0222 53.6071 39.7031V32.4844C53.6071 32.1653 53.4585 31.8593 53.194 31.6336C52.9294 31.408 52.5706 31.2812 52.1964 31.2812H43.7321C43.358 31.2812 42.9992 31.408 42.7346 31.6336C42.4701 31.8593 42.3214 32.1653 42.3214 32.4844V39.7031C42.3214 40.0222 42.4701 40.3282 42.7346 40.5539C42.9992 40.7795 43.358 40.9062 43.7321 40.9062ZM45.1429 33.6875H50.7857V38.5H45.1429V33.6875ZM43.7321 69.7812H52.1964C52.5706 69.7812 52.9294 69.6545 53.194 69.4289C53.4585 69.2032 53.6071 68.8972 53.6071 68.5781V61.3594C53.6071 61.0403 53.4585 60.7343 53.194 60.5086C52.9294 60.283 52.5706 60.1562 52.1964 60.1562H43.7321C43.358 60.1562 42.9992 60.283 42.7346 60.5086C42.4701 60.7343 42.3214 61.0403 42.3214 61.3594V68.5781C42.3214 68.8972 42.4701 69.2032 42.7346 69.4289C42.9992 69.6545 43.358 69.7812 43.7321 69.7812ZM45.1429 62.5625H50.7857V67.375H45.1429V62.5625ZM43.7321 55.3438H52.1964C52.5706 55.3438 52.9294 55.217 53.194 54.9914C53.4585 54.7657 53.6071 54.4597 53.6071 54.1406V46.9219C53.6071 46.6028 53.4585 46.2968 53.194 46.0711C52.9294 45.8455 52.5706 45.7188 52.1964 45.7188H43.7321C43.358 45.7188 42.9992 45.8455 42.7346 46.0711C42.4701 46.2968 42.3214 46.6028 42.3214 46.9219V54.1406C42.3214 54.4597 42.4701 54.7657 42.7346 54.9914C42.9992 55.217 43.358 55.3438 43.7321 55.3438ZM45.1429 48.125H50.7857V52.9375H45.1429V48.125ZM35.2679 45.7188H26.8036C26.4294 45.7188 26.0706 45.8455 25.806 46.0711C25.5415 46.2968 25.3929 46.6028 25.3929 46.9219V54.1406C25.3929 54.4597 25.5415 54.7657 25.806 54.9914C26.0706 55.217 26.4294 55.3438 26.8036 55.3438H35.2679C35.642 55.3438 36.0008 55.217 36.2654 54.9914C36.5299 54.7657 36.6786 54.4597 36.6786 54.1406V46.9219C36.6786 46.6028 36.5299 46.2968 36.2654 46.0711C36.0008 45.8455 35.642 45.7188 35.2679 45.7188ZM33.8571 52.9375H28.2143V48.125H33.8571V52.9375Z" fill="black"/>
</svg>
