<svg width="28" height="29" viewBox="0 0 28 29" fill="none" xmlns="http://www.w3.org/2000/svg">
<path id="Vector" d="M14 0C11.2311 0 8.52431 0.85041 6.22202 2.44369C3.91973 4.03697 2.12532 6.30156 1.06569 8.95109C0.00606598 11.6006 -0.271181 14.5161 0.269012 17.3288C0.809205 20.1415 2.14258 22.7252 4.10051 24.753C6.05845 26.7809 8.55301 28.1619 11.2687 28.7214C13.9845 29.2809 16.7994 28.9937 19.3576 27.8962C21.9157 26.7988 24.1022 24.9403 25.6406 22.5558C27.1789 20.1712 28 17.3678 28 14.5C27.9961 10.6556 26.5198 6.96983 23.8952 4.25143C21.2705 1.53304 17.7118 0.00405975 14 0ZM6.74154 24.1899C7.52061 22.928 8.59386 21.8894 9.86236 21.1701C11.1309 20.4507 12.5538 20.0737 14 20.0737C15.4462 20.0737 16.8691 20.4507 18.1376 21.1701C19.4061 21.8894 20.4794 22.928 21.2585 24.1899C19.1831 25.8616 16.6291 26.7691 14 26.7691C11.3709 26.7691 8.81686 25.8616 6.74154 24.1899ZM9.69231 13.3846C9.69231 12.5022 9.94495 11.6396 10.4183 10.9059C10.8916 10.1722 11.5644 9.60037 12.3515 9.26269C13.1386 8.925 14.0048 8.83665 14.8404 9.0088C15.676 9.18095 16.4436 9.60587 17.046 10.2298C17.6484 10.8538 18.0587 11.6488 18.2249 12.5142C18.3911 13.3797 18.3058 14.2767 17.9798 15.092C17.6538 15.9072 17.1016 16.604 16.3932 17.0942C15.6848 17.5845 14.852 17.8461 14 17.8461C12.8575 17.8461 11.7619 17.3761 10.954 16.5394C10.1462 15.7027 9.69231 14.5679 9.69231 13.3846ZM22.8523 22.6437C21.6512 20.8411 19.9624 19.4465 17.9981 18.6353C19.0532 17.7745 19.8232 16.5947 20.2008 15.2597C20.5785 13.9247 20.5451 12.5011 20.1054 11.1867C19.6656 9.87227 18.8413 8.73246 17.7471 7.92577C16.6529 7.11907 15.3431 6.68558 14 6.68558C12.6569 6.68558 11.3472 7.11907 10.2529 7.92577C9.15872 8.73246 8.33441 9.87227 7.89464 11.1867C7.45487 12.5011 7.4215 13.9247 7.79918 15.2597C8.17685 16.5947 8.94679 17.7745 10.0019 18.6353C8.03764 19.4465 6.34878 20.8411 5.1477 22.6437C3.63 20.876 2.63803 18.6917 2.29122 16.3536C1.94442 14.0156 2.25757 11.6235 3.19297 9.46557C4.12837 7.30759 5.64614 5.47567 7.56351 4.19041C9.48088 2.90515 11.7161 2.22135 14 2.22135C16.2839 2.22135 18.5191 2.90515 20.4365 4.19041C22.3539 5.47567 23.8716 7.30759 24.807 9.46557C25.7424 11.6235 26.0556 14.0156 25.7088 16.3536C25.362 18.6917 24.37 20.876 22.8523 22.6437Z" fill="#7E7E7E"/>
</svg>
